<svg viewBox="0 0 115 88" fill="none" xmlns="http://www.w3.org/2000/svg">
<path d="M78.7562 42.5014C78.7562 41.3312 77.7425 40.2559 76.5723 40.2559C75.4022 40.2559 74.391 41.3312 74.391 42.5014C74.391 43.6715 75.4022 44.7288 76.5723 44.7288C77.7425 44.7288 78.7562 43.6715 78.7562 42.5014Z" fill="white"/>
<path d="M36.1361 42.5014C36.1361 41.3312 35.1224 40.2559 33.9523 40.2559C32.7821 40.2559 31.7709 41.3312 31.7709 42.5014C31.7709 43.6715 32.7821 44.7288 33.9523 44.7288C35.1224 44.7288 36.1361 43.6715 36.1361 42.5014Z" fill="white"/>
<path d="M46.6307 71.9941C47.2196 72.6222 48.0423 72.9786 48.9034 72.9786H51.2768C51.6843 72.9786 52.0779 72.8307 52.3846 72.5624V72.5624C52.6854 72.2992 53.07 72.1517 53.4697 72.1463L60.8342 72.0468C61.3067 72.0404 61.7692 72.1828 62.1563 72.4538V72.4538C62.5349 72.7188 62.9859 72.8609 63.448 72.8609H65.8267C66.6345 72.8609 67.4061 72.5257 67.9572 71.9351L68.2415 71.6306C68.5625 71.2866 68.741 70.8337 68.741 70.3632V70.3632C68.741 69.3374 67.9094 68.5058 66.8836 68.5058H64.2457C63.4138 68.5058 62.5983 68.2749 61.8898 67.8389L61.7652 67.7623C61.5508 67.6304 61.3467 67.4825 61.1545 67.3199L60.0719 66.4038C59.9661 66.3143 59.8672 66.217 59.7759 66.1127V66.1127C59.3331 65.6066 59.089 64.957 59.089 64.2846V61.6891C59.089 60.43 59.7089 59.2516 60.7465 58.5383V58.5383C60.8969 58.4349 61.0397 58.3208 61.1738 58.197L62.5026 56.9705L62.6964 56.7551C63.2536 56.136 63.5619 55.3325 63.5619 54.4996V53.899C63.5619 53.1687 63.2037 52.485 62.6033 52.0693V52.0693C62.2311 51.8117 61.7892 51.6736 61.3366 51.6736H53.7099C53.1516 51.6736 52.6078 51.8517 52.1576 52.1818V52.1818C51.4833 52.6763 51.085 53.4624 51.085 54.2986V54.5173C51.085 55.4026 51.4689 56.2445 52.1373 56.825L53.3214 57.8533C54.742 59.0869 55.5578 60.876 55.5578 62.7575V63.5293C55.5578 64.7617 55.0958 65.9494 54.2631 66.8579V66.8579L53.1877 67.7796C52.8118 68.1018 52.3623 68.3265 51.879 68.4339V68.4339C51.6642 68.4817 51.4448 68.5058 51.2247 68.5058H47.6438C46.619 68.5058 45.7881 69.3366 45.7881 70.3615V70.3615C45.7881 70.833 45.9676 71.2867 46.29 71.6307L46.6307 71.9941Z" fill="white"/>
<path fill-rule="evenodd" clip-rule="evenodd" d="M7.53327 65.7984L3.368 61.6331C2.61687 60.882 1.96758 60.0355 1.43675 59.1154L0.872249 58.1369C0.60631 57.676 0.414977 57.1759 0.305344 56.6551V56.6551C0.105994 55.7082 0.183161 54.7239 0.527648 53.8196L2.40965 48.8794C2.68609 48.1537 3.02024 47.4514 3.40889 46.7791L5.7595 42.7132C6.65029 41.1724 6.73651 39.2947 5.99067 37.6787V37.6787C5.84234 37.3573 5.72553 37.0223 5.64187 36.6784L5.15726 34.6861C4.85833 33.4571 4.64753 32.2084 4.52648 30.9495L4.11975 26.7196V12.4887C4.11975 11.1497 4.24393 9.81369 4.49068 8.49768L4.71636 7.29403C4.78932 6.90491 4.89479 6.52259 5.03166 6.15109V6.15109C5.43748 5.04958 6.1108 4.06625 6.99102 3.28957L7.20392 3.10173C7.50156 2.8391 7.81787 2.59842 8.15036 2.38158L8.30624 2.27992C9.65697 1.39901 11.1884 0.83279 12.7873 0.623097L14.8401 0.353867C16.6306 0.119052 18.4447 0.129478 20.2324 0.384856L24.9539 1.05937L29.4268 1.88332L35.9007 3.64893L36.3437 3.75632C38.6007 4.30346 40.9598 4.2665 43.1986 3.64893V3.64893L44.0014 3.37562C47.1431 2.30611 50.4013 1.61569 53.7067 1.31905L54.3208 1.26395C56.7088 1.04964 59.1124 1.07719 61.4948 1.34618V1.34618C63.9647 1.62503 66.3986 2.16185 68.7566 2.94785L70.8598 3.64893L72.4074 3.99284C74.164 4.38321 75.9956 4.26389 77.6868 3.64893V3.64893L80.3941 2.82497L84.043 1.76561L89.4575 0.941658L95.4959 0.378073C97.3481 0.2052 99.2148 0.268983 101.051 0.567882L102.262 0.765033C102.983 0.882453 103.69 1.07593 104.371 1.34223L104.686 1.46553C105.591 1.81984 106.428 2.32843 107.16 2.96871V2.96871C108.286 3.95366 109.129 5.22089 109.602 6.63987L109.821 7.29785V7.29785C110.368 9.64425 110.645 12.0457 110.645 14.4551V23.4237L109.939 29.3091L108.997 35.3122L108.832 38.9301C108.786 39.9635 108.913 40.9974 109.211 41.9882V41.9882C109.382 42.5583 109.608 43.1105 109.886 43.637L111.704 47.0829L113.794 51.7592C114.048 52.3279 114.235 52.9243 114.35 53.5363L114.374 53.6625C114.773 55.7715 114.275 57.9515 112.999 59.6776V59.6776L108.997 64.0328L104.406 68.3879L100.169 72.1546L95.3429 75.5681L91.4585 78.1576L86.3971 80.7472L82.2774 82.7482L77.8045 84.5138L75.0972 85.3378L71.566 86.2794L71.357 86.3169C68.4417 86.8402 65.4857 87.1034 62.5238 87.1034H51.5815C48.9007 87.1034 46.2242 86.8878 43.5779 86.4587L43.1986 86.3971L39.5496 85.4555L36.9601 84.5138L35.08 83.9008C32.727 83.1335 30.4341 82.1925 28.2204 81.0856L26.131 80.0409L20.0102 76.5097L16.479 73.9202L12.9478 71.2129L7.53327 65.7984ZM78.4657 50.7318L78.857 50.7253C82.198 50.6691 84.8484 47.8925 84.7492 44.5524C84.653 41.3119 81.9982 38.7348 78.7562 38.7348H78.3649C75.5347 38.7348 73.0894 40.7129 72.4983 43.4807C71.6922 47.2545 74.6073 50.7967 78.4657 50.7318ZM4.92336 54.4709C4.8613 55.4639 5.21715 56.4376 5.90485 57.1566L15.1842 66.8577L16.2678 68.2509C16.5418 68.6032 17.0828 68.5755 17.3193 68.197V68.197C17.3854 68.0912 17.4193 67.9683 17.4168 67.8436L17.334 63.7875C17.3134 62.7768 17.4003 61.7668 17.5932 60.7744L18.1269 58.0297L19.304 53.9099L20.8342 50.3787V50.3787C22.0085 48.1866 23.3907 46.1123 24.9616 44.1843L25.1894 43.9048L25.8 43.2178C26.0132 42.9779 26.131 42.6682 26.131 42.3473V42.3473C26.131 41.595 25.4991 40.9972 24.748 41.039L24.1458 41.0724C24.0569 41.0774 23.9685 41.0886 23.8812 41.1061L22.2467 41.433L19.6571 42.2569L16.0653 43.9048L15.0937 44.4294C13.2735 45.4122 11.5328 46.5355 9.88741 47.7892V47.7892L7.65097 49.5548L7.20858 49.9603C6.56727 50.5482 6.03902 51.2485 5.64995 52.0266V52.0266L5.17912 53.2037L5.02282 53.8289C4.97019 54.0394 4.93689 54.2543 4.92336 54.4709V54.4709ZM97.2608 68.5413C97.3158 68.5177 97.3664 68.485 97.4106 68.4445L100.169 65.9161L105.466 60.5015L108.879 56.9703L109 56.8498C109.526 56.324 109.821 55.611 109.821 54.8674V54.8674C109.821 54.3938 109.701 53.9278 109.472 53.5131L108.568 51.8751C108.15 51.1161 107.635 50.4144 107.036 49.7873L106.578 49.3076C105.839 48.5329 105.019 47.8386 104.134 47.2364L102.523 46.1413L99.5803 44.3756L99.008 44.069C97.1961 43.0984 95.2996 42.2948 93.3419 41.6684V41.6684L92.1533 41.3514C91.7703 41.2493 91.3755 41.1975 90.979 41.1975H89.1761C88.8356 41.1975 88.5161 41.362 88.3183 41.639V41.639C88.1444 41.8824 88.0821 42.1883 88.147 42.4804L88.1921 42.6834C88.25 42.9438 88.3753 43.1844 88.5556 43.381L89.5752 44.4934L91.3408 46.6121L91.3936 46.6865C92.6897 48.5163 93.8147 50.4615 94.7543 52.4974V52.4974L95.5783 55.087L96.2358 57.2239C96.4242 57.8361 96.52 58.4731 96.52 59.1136V68.0527C96.52 68.4343 96.9101 68.6916 97.2608 68.5413V68.5413ZM68.5056 36C68.5056 37.0394 69.464 37.8141 70.4803 37.5963L71.3612 37.4075C71.6521 37.3452 71.9285 37.2285 72.1761 37.0634L75.3458 34.9503C76.0412 34.4867 76.684 33.9487 77.2628 33.3457L78.4626 32.096C78.9582 31.5797 79.3216 30.9514 79.522 30.2644V30.2644C79.8541 29.1258 79.7168 27.9018 79.1409 26.865L79.0403 26.6839C78.9231 26.473 78.7819 26.2762 78.6195 26.0977V26.0977C78.0255 25.4442 77.1833 25.0716 76.3002 25.0716H75.5933C74.7397 25.0716 73.9123 25.367 73.2517 25.9075V25.9075C73.07 26.0562 72.9028 26.2218 72.7525 26.4022L72.2335 27.025C71.556 27.838 70.9872 28.7358 70.5415 29.6958L69.6827 31.5455L69.526 31.9374C69.0051 33.2397 68.6619 34.6061 68.5056 36V36V36ZM43.4021 37.2626C43.5788 37.3738 43.7746 37.4511 43.9795 37.4906V37.4906C45.2246 37.73 46.2755 36.5556 45.8997 35.3446L45.6704 34.6059L44.1402 30.7216L42.6991 27.9354C42.4841 27.5197 42.2062 27.1396 41.8752 26.8087V26.8087C41.2048 26.1383 40.3417 25.6941 39.4065 25.5382L39.3765 25.5332C38.9448 25.4613 38.5051 25.4507 38.0704 25.5019L37.4917 25.5699C36.9888 25.6291 36.5096 25.8166 36.1 26.1145L36.0327 26.1634C35.6384 26.4502 35.3307 26.8399 35.1432 27.2899V27.2899C34.9462 27.7627 34.8901 28.2825 34.9817 28.7865L35.0804 29.3292C35.2319 30.1623 35.6141 30.936 36.1837 31.5625L36.4893 31.8987L38.2549 33.5466L40.4913 35.4299L43.4021 37.2626ZM8.98131 32.9419C9.29567 33.8401 10.5134 33.9673 11.0066 33.1535L13.9297 28.3304C14.2884 27.7387 14.478 27.06 14.478 26.368V16.8321L14.577 15.3967C14.6598 14.1966 15.4494 13.161 16.5849 12.7636V12.7636C16.9044 12.6518 17.2404 12.5947 17.5789 12.5947H24.9056C27.1578 12.5947 29.3545 11.8955 31.1924 10.5937V10.5937L33.2554 9.39027C33.7226 9.11775 33.9961 8.60507 33.9624 8.06527V8.06527C33.9248 7.46351 33.5139 6.94992 32.9351 6.7811L31.0747 6.23849L27.4258 5.53224L22.7175 4.70829V4.70829C20.5231 4.3948 18.3091 4.23746 16.0924 4.23746H14.5957L12.904 4.46302C11.7177 4.62119 10.6285 5.20246 9.83663 6.09986V6.09986C9.48049 6.50348 9.19235 6.96231 8.98347 7.4584L8.77808 7.94621C8.49872 8.60968 8.30795 9.30706 8.21068 10.0203L8.00409 11.5353V15.6551L8.35722 28.8383L8.93009 32.7338C8.94051 32.8047 8.95766 32.8744 8.98131 32.9419V32.9419ZM100.692 25.7823C100.735 26.9394 101.056 28.0691 101.628 29.0759L103.385 32.1684C103.58 32.511 103.944 32.7226 104.338 32.7226V32.7226C104.908 32.7226 105.383 32.2843 105.429 31.7154L105.937 25.4248L106.147 12.4953C106.163 11.47 106.01 10.4491 105.693 9.47384L105.19 7.92612C104.836 6.83643 104.107 5.90755 103.133 5.30445V5.30445C102.499 4.9123 101.784 4.67154 101.042 4.60091L100.316 4.53171C99.9046 4.49255 99.491 4.48543 99.0786 4.51042L91.9294 4.94371L86.7503 5.88536L81.8065 6.94473V6.94473C80.7776 7.31889 80.6514 8.72312 81.5971 9.27478L82.042 9.53429V9.53429C84.6501 11.2986 87.7269 12.2416 90.8758 12.2416H91.2231H96.4909C96.8229 12.2416 97.1537 12.2823 97.4758 12.3628L97.845 12.4551C98.7942 12.6924 99.5866 13.3437 100.003 14.2291V14.2291C100.19 14.6263 100.295 15.0573 100.311 15.4961L100.692 25.7823ZM35.7449 50.5031L36.1361 50.4966C39.4772 50.4404 42.1276 47.6638 42.0284 44.3237C41.9321 41.0832 39.2774 38.5061 36.0354 38.5061H35.6441C32.8138 38.5061 30.3686 40.4842 29.7774 43.252C28.9714 47.0258 31.8865 50.568 35.7449 50.5031ZM44.8465 50.732L43.9048 51.6736L40.3736 54.3809L39.781 54.9196C39.3241 55.335 38.7499 55.5991 38.1372 55.6757V55.6757H32.8278C32.5247 55.6757 32.2242 55.7302 31.9404 55.8366V55.8366C31.6026 55.9633 31.2959 56.1608 31.0408 56.4159L30.7459 56.7108C30.4952 56.9615 30.2753 57.2412 30.091 57.5441L28.7206 59.7954V59.7954C27.789 61.9281 27.3081 64.2303 27.3081 66.5575V69.5226C27.3081 70.0185 27.388 70.5112 27.5449 70.9817V70.9817C27.6223 71.214 27.7181 71.4398 27.8314 71.6569L28.1442 72.2565C28.7603 73.4373 29.5528 74.5171 30.4946 75.4589L31.1924 76.1567L31.5724 76.5051C33.1954 77.9928 35.0068 79.2608 36.9601 80.2765V80.2765L40.3736 81.689L43.7871 82.7484L46.7298 83.5723V83.5723C48.4527 83.8855 50.2002 84.043 51.9513 84.043H65.0921L67.0931 83.9253L67.7038 83.8143C69.0204 83.5749 70.313 83.2181 71.566 82.7484V82.7484L74.1556 81.8067L76.0389 80.9827L77.8045 80.0411L79.3347 79.3348V79.3348C80.6594 78.6335 81.8578 77.7161 82.8806 76.6203L82.9836 76.5099L83.8504 75.6431C84.5259 74.9676 85.1216 74.2169 85.6259 73.4056V73.4056C86.8976 71.3598 87.5505 68.99 87.5059 66.5816L87.4661 64.4344C87.4597 64.0888 87.4254 63.7443 87.3636 63.4042V63.4042C87.269 62.8837 87.1104 62.3768 86.8914 61.8951L86.6325 61.3256L85.8086 59.56L85.405 58.8032C85.0483 58.1344 84.5945 57.522 84.0585 56.986L83.7112 56.6386C83.3077 56.2352 82.8369 55.9054 82.3198 55.6641V55.6641C81.6716 55.3616 80.965 55.2049 80.2497 55.2049H75.4092C75.28 55.2049 75.1511 55.1921 75.0245 55.1668V55.1668C74.7619 55.1142 74.5128 55.0085 74.2926 54.8561L73.0962 54.0278L72.4929 53.6256C72.1896 53.4234 71.907 53.1917 71.6493 52.934V52.934C71.3593 52.644 71.1024 52.3226 70.8833 51.9758L69.8004 50.2612L68.5056 48.3778L67.8359 47.6411C67.4981 47.2696 67.134 46.9228 66.7464 46.6036L66.4267 46.3404C65.6995 45.7415 64.8734 45.2741 63.9855 44.9592V44.9592C63.1164 44.651 62.201 44.4935 61.2789 44.4935H50.9433C50.4926 44.4935 50.0461 44.5798 49.6279 44.7478V44.7478C49.2131 44.9144 48.8337 45.1583 48.5099 45.4666L48.1801 45.7806C47.7647 46.176 47.4092 46.6297 47.1247 47.1276L46.6121 48.0247L46.3513 48.5836C45.9787 49.3819 45.4694 50.109 44.8465 50.732V50.732ZM46.6307 71.9941C47.2196 72.6222 48.0423 72.9786 48.9034 72.9786H51.2768C51.6843 72.9786 52.0779 72.8307 52.3846 72.5624V72.5624C52.6854 72.2992 53.07 72.1517 53.4697 72.1463L60.8342 72.0468C61.3067 72.0404 61.7692 72.1828 62.1563 72.4538V72.4538C62.5349 72.7188 62.9859 72.8609 63.448 72.8609H65.8267C66.6345 72.8609 67.4061 72.5257 67.9572 71.9351L68.2415 71.6306C68.5625 71.2866 68.741 70.8337 68.741 70.3632V70.3632C68.741 69.3374 67.9094 68.5058 66.8836 68.5058H64.2457C63.4138 68.5058 62.5983 68.2749 61.8898 67.8389L61.7652 67.7623C61.5508 67.6304 61.3467 67.4825 61.1545 67.3199L60.0719 66.4038C59.9661 66.3143 59.8672 66.217 59.7759 66.1127V66.1127C59.3331 65.6066 59.089 64.957 59.089 64.2846V61.6891C59.089 60.43 59.7089 59.2516 60.7465 58.5383V58.5383C60.8969 58.4349 61.0397 58.3208 61.1738 58.197L62.5026 56.9705L62.6964 56.7551C63.2536 56.136 63.5619 55.3325 63.5619 54.4996V53.899C63.5619 53.1687 63.2037 52.485 62.6033 52.0693V52.0693C62.2311 51.8117 61.7892 51.6736 61.3366 51.6736H53.7099C53.1516 51.6736 52.6078 51.8517 52.1576 52.1818V52.1818C51.4833 52.6763 51.085 53.4624 51.085 54.2986V54.5173C51.085 55.4026 51.4689 56.2445 52.1373 56.825L53.3214 57.8533C54.742 59.0869 55.5578 60.876 55.5578 62.7575V63.5293C55.5578 64.7617 55.0958 65.9494 54.2631 66.8579V66.8579L53.1877 67.7796C52.8118 68.1018 52.3623 68.3265 51.879 68.4339V68.4339C51.6642 68.4817 51.4448 68.5058 51.2247 68.5058H47.6438C46.619 68.5058 45.7881 69.3366 45.7881 70.3615V70.3615C45.7881 70.833 45.9676 71.2867 46.29 71.6307L46.6307 71.9941Z" fill="white"/>
</svg>